<?xml version="1.0" encoding="UTF-8" standalone="no"?>
<!DOCTYPE svg PUBLIC "-//W3C//DTD SVG 1.1//EN"
 "http://www.w3.org/Graphics/SVG/1.1/DTD/svg11.dtd">
<!-- Generated by graphviz version 2.42.4 (0)
 -->
<!-- Title: implementation_graph_overview_compact Pages: 1 -->
<svg width="1814pt" height="943pt"
 viewBox="0.00 0.00 1814.00 943.00" xmlns="http://www.w3.org/2000/svg" xmlns:xlink="http://www.w3.org/1999/xlink">
<g id="graph0" class="graph" transform="scale(1 1) rotate(0) translate(4 939)">
<title>implementation_graph_overview_compact</title>
<polygon fill="white" stroke="transparent" points="-4,4 -4,-939 1810,-939 1810,4 -4,4"/>
<text text-anchor="middle" x="903" y="-916.6" font-family="Helvetica,sans-Serif" font-size="18.00">Reconstructed high&#45;level implementation graph for experiments_related</text>
<!-- raw -->
<g id="node1" class="node">
<title>raw</title>
<path fill="#e7f0ff" stroke="#444444" d="M1150.5,-907C1150.5,-907 639.5,-907 639.5,-907 633.5,-907 627.5,-901 627.5,-895 627.5,-895 627.5,-859 627.5,-859 627.5,-853 633.5,-847 639.5,-847 639.5,-847 1150.5,-847 1150.5,-847 1156.5,-847 1162.5,-853 1162.5,-859 1162.5,-859 1162.5,-895 1162.5,-895 1162.5,-901 1156.5,-907 1150.5,-907"/>
<text text-anchor="middle" x="895" y="-893.4" font-family="Helvetica,sans-Serif" font-size="12.00">OccuFly raw data conventions</text>
<text text-anchor="middle" x="895" y="-880.4" font-family="Helvetica,sans-Serif" font-size="12.00">scene_XX/{30,40,50}/images/visual</text>
<text text-anchor="middle" x="895" y="-867.4" font-family="Helvetica,sans-Serif" font-size="12.00">depth_maps, calibration.txt, SSC grids/labels</text>
<text text-anchor="middle" x="895" y="-854.4" font-family="Helvetica,sans-Serif" font-size="12.00">Evidence: scripts/03, scripts/06, scripts/dpt_decoder/*, scripts_ssc/*/occufly_ssc_data.py</text>
</g>
<!-- loaders -->
<g id="node2" class="node">
<title>loaders</title>
<path fill="#e7f0ff" stroke="#444444" d="M1056,-806C1056,-806 734,-806 734,-806 728,-806 722,-800 722,-794 722,-794 722,-758 722,-758 722,-752 728,-746 734,-746 734,-746 1056,-746 1056,-746 1062,-746 1068,-752 1068,-758 1068,-758 1068,-794 1068,-794 1068,-800 1062,-806 1056,-806"/>
<text text-anchor="middle" x="895" y="-792.4" font-family="Helvetica,sans-Serif" font-size="12.00">Shared loaders / metadata construction</text>
<text text-anchor="middle" x="895" y="-779.4" font-family="Helvetica,sans-Serif" font-size="12.00">Depth: OccuFlyDepthDataset + collect_occufly_samples</text>
<text text-anchor="middle" x="895" y="-766.4" font-family="Helvetica,sans-Serif" font-size="12.00">SSC: OccuFlySSCDataset + grid spec + label mapping</text>
<text text-anchor="middle" x="895" y="-753.4" font-family="Helvetica,sans-Serif" font-size="12.00">Video: clip construction / MP4 materialization</text>
</g>
<!-- raw&#45;&gt;loaders -->
<g id="edge1" class="edge">
<title>raw&#45;&gt;loaders</title>
<path fill="none" stroke="#555555" d="M895,-846.83C895,-836.55 895,-824.85 895,-814.01"/>
<polygon fill="#555555" stroke="#555555" points="897.63,-813.8 895,-806.3 892.38,-813.8 897.63,-813.8"/>
</g>
<!-- mde -->
<g id="node4" class="node">
<title>mde</title>
<path fill="#eaffea" stroke="#444444" d="M1132,-486C1132,-486 756,-486 756,-486 750,-486 744,-480 744,-474 744,-474 744,-425 744,-425 744,-419 750,-413 756,-413 756,-413 1132,-413 1132,-413 1138,-413 1144,-419 1144,-425 1144,-425 1144,-474 1144,-474 1144,-480 1138,-486 1132,-486"/>
<text text-anchor="middle" x="944" y="-472.4" font-family="Helvetica,sans-Serif" font-size="12.00">Monocular depth estimation family</text>
<text text-anchor="middle" x="944" y="-459.4" font-family="Helvetica,sans-Serif" font-size="12.00">Linear probe: scripts/03</text>
<text text-anchor="middle" x="944" y="-446.4" font-family="Helvetica,sans-Serif" font-size="12.00">DINO&#45;style probe: scripts/06 + vjepa21_dinov3_depth_adapter.py</text>
<text text-anchor="middle" x="944" y="-433.4" font-family="Helvetica,sans-Serif" font-size="12.00">DPT multilayer: scripts/07</text>
<text text-anchor="middle" x="944" y="-420.4" font-family="Helvetica,sans-Serif" font-size="12.00">DPT&#45;FiLM / altitude / SFP: scripts/dpt_decoder/*.py</text>
</g>
<!-- loaders&#45;&gt;mde -->
<g id="edge8" class="edge">
<title>loaders&#45;&gt;mde</title>
<path fill="none" stroke="#555555" d="M1002.48,-745.96C1026.76,-734.18 1049.59,-717.77 1064,-695 1087.89,-657.26 1055.36,-527.74 1040,-506 1036.25,-500.69 1031.81,-495.81 1026.94,-491.35"/>
<polygon fill="#555555" stroke="#555555" points="1028.44,-489.18 1021.04,-486.3 1025.03,-493.17 1028.44,-489.18"/>
</g>
<!-- vjepa_ft -->
<g id="node5" class="node">
<title>vjepa_ft</title>
<path fill="#eaffea" stroke="#444444" d="M1035.5,-695C1035.5,-695 646.5,-695 646.5,-695 640.5,-695 634.5,-689 634.5,-683 634.5,-683 634.5,-647 634.5,-647 634.5,-641 640.5,-635 646.5,-635 646.5,-635 1035.5,-635 1035.5,-635 1041.5,-635 1047.5,-641 1047.5,-647 1047.5,-647 1047.5,-683 1047.5,-683 1047.5,-689 1041.5,-695 1035.5,-695"/>
<text text-anchor="middle" x="841" y="-681.4" font-family="Helvetica,sans-Serif" font-size="12.00">V&#45;JEPA OccuFly adaptation wrappers</text>
<text text-anchor="middle" x="841" y="-668.4" font-family="Helvetica,sans-Serif" font-size="12.00">RGB: scripts/08_vjepa21_finetune_occufly.py</text>
<text text-anchor="middle" x="841" y="-655.4" font-family="Helvetica,sans-Serif" font-size="12.00">Video: scripts/11_vjepa21_finetune_occufly_video.py</text>
<text text-anchor="middle" x="841" y="-642.4" font-family="Helvetica,sans-Serif" font-size="12.00">Fine&#45;tuned probes: scripts/10_* and scripts/11_vjepa21_finetuned_*</text>
</g>
<!-- loaders&#45;&gt;vjepa_ft -->
<g id="edge9" class="edge">
<title>loaders&#45;&gt;vjepa_ft</title>
<path fill="none" stroke="#555555" d="M880.53,-745.79C873.87,-732.35 865.91,-716.27 858.88,-702.08"/>
<polygon fill="#555555" stroke="#555555" points="861.19,-700.85 855.51,-695.29 856.49,-703.18 861.19,-700.85"/>
<text text-anchor="middle" x="913.5" y="-718" font-family="Helvetica,sans-Serif" font-size="10.00">RGB/video frames</text>
</g>
<!-- video_depth -->
<g id="node6" class="node">
<title>video_depth</title>
<path fill="#eaffea" stroke="#444444" d="M618.5,-479.5C618.5,-479.5 305.5,-479.5 305.5,-479.5 299.5,-479.5 293.5,-473.5 293.5,-467.5 293.5,-467.5 293.5,-431.5 293.5,-431.5 293.5,-425.5 299.5,-419.5 305.5,-419.5 305.5,-419.5 618.5,-419.5 618.5,-419.5 624.5,-419.5 630.5,-425.5 630.5,-431.5 630.5,-431.5 630.5,-467.5 630.5,-467.5 630.5,-473.5 624.5,-479.5 618.5,-479.5"/>
<text text-anchor="middle" x="462" y="-465.9" font-family="Helvetica,sans-Serif" font-size="12.00">Video depth family</text>
<text text-anchor="middle" x="462" y="-452.9" font-family="Helvetica,sans-Serif" font-size="12.00">ST&#45;LP: vjepa21video_scripts/scripts/train_stlp_depth.py</text>
<text text-anchor="middle" x="462" y="-439.9" font-family="Helvetica,sans-Serif" font-size="12.00">DTA DPT&#45;FiLM: vjepa21video_dptfilm_attention/*</text>
<text text-anchor="middle" x="462" y="-426.9" font-family="Helvetica,sans-Serif" font-size="12.00">Modes include repeated / real / shuffled clips</text>
</g>
<!-- loaders&#45;&gt;video_depth -->
<g id="edge10" class="edge">
<title>loaders&#45;&gt;video_depth</title>
<path fill="none" stroke="#555555" d="M721.99,-763.58C621.3,-755.25 510.9,-742.54 494,-726 430.11,-663.47 442.06,-546.73 453.45,-487.3"/>
<polygon fill="#555555" stroke="#555555" points="456.08,-487.52 454.97,-479.65 450.93,-486.5 456.08,-487.52"/>
<text text-anchor="middle" x="458.5" y="-607" font-family="Helvetica,sans-Serif" font-size="10.00">clips</text>
</g>
<!-- segmentation -->
<g id="node7" class="node">
<title>segmentation</title>
<path fill="#eaffea" stroke="#444444" d="M1760,-695C1760,-695 1492,-695 1492,-695 1486,-695 1480,-689 1480,-683 1480,-683 1480,-647 1480,-647 1480,-641 1486,-635 1492,-635 1492,-635 1760,-635 1760,-635 1766,-635 1772,-641 1772,-647 1772,-647 1772,-683 1772,-683 1772,-689 1766,-695 1760,-695"/>
<text text-anchor="middle" x="1626" y="-681.4" font-family="Helvetica,sans-Serif" font-size="12.00">Semantic segmentation launchers</text>
<text text-anchor="middle" x="1626" y="-668.4" font-family="Helvetica,sans-Serif" font-size="12.00">VOC download + V&#45;JEPA/DINOv3 linear sweeps</text>
<text text-anchor="middle" x="1626" y="-655.4" font-family="Helvetica,sans-Serif" font-size="12.00">scripts_segmentation/dataset_download/*</text>
<text text-anchor="middle" x="1626" y="-642.4" font-family="Helvetica,sans-Serif" font-size="12.00">scripts_segmentation/linear_pipeline/*</text>
</g>
<!-- loaders&#45;&gt;segmentation -->
<g id="edge11" class="edge">
<title>loaders&#45;&gt;segmentation</title>
<path fill="none" stroke="#555555" d="M1068.24,-749.17C1190.94,-730.87 1354.05,-706.55 1472.16,-688.94"/>
<polygon fill="#555555" stroke="#555555" points="1472.85,-691.49 1479.88,-687.79 1472.07,-686.3 1472.85,-691.49"/>
<text text-anchor="middle" x="1316.5" y="-718" font-family="Helvetica,sans-Serif" font-size="10.00">images/labels</text>
</g>
<!-- ssc -->
<g id="node8" class="node">
<title>ssc</title>
<path fill="#eaffea" stroke="#444444" d="M1203,-249C1203,-249 493,-249 493,-249 487,-249 481,-243 481,-237 481,-237 481,-201 481,-201 481,-195 487,-189 493,-189 493,-189 1203,-189 1203,-189 1209,-189 1215,-195 1215,-201 1215,-201 1215,-237 1215,-237 1215,-243 1209,-249 1203,-249"/>
<text text-anchor="middle" x="848" y="-235.4" font-family="Helvetica,sans-Serif" font-size="12.00">V&#45;JEPA / FoundationSSC semantic scene completion</text>
<text text-anchor="middle" x="848" y="-222.4" font-family="Helvetica,sans-Serif" font-size="12.00">Simple scaffold: scripts_ssc/vjepafoundationssc/*</text>
<text text-anchor="middle" x="848" y="-209.4" font-family="Helvetica,sans-Serif" font-size="12.00">Frozen&#45;depth variant: scripts_ssc/vjepafoundationssc_frozendepthhead/*</text>
<text text-anchor="middle" x="848" y="-196.4" font-family="Helvetica,sans-Serif" font-size="12.00">Hybrid video/RGB + pose&#45;MVS/DPT geometry: scripts_ssc/vjepa21video_posemvs_film_consistent_foundationssc_hybrid/*</text>
</g>
<!-- loaders&#45;&gt;ssc -->
<g id="edge12" class="edge">
<title>loaders&#45;&gt;ssc</title>
<path fill="none" stroke="#555555" d="M721.8,-748.06C700.52,-742.1 679.45,-734.84 660,-726 639.2,-716.55 629.18,-715.45 619,-695 607.12,-671.13 614.29,-661.25 619,-635 625.49,-598.84 713.53,-355.51 734,-325 752.23,-297.82 778.87,-272.77 801.82,-253.95"/>
<polygon fill="#555555" stroke="#555555" points="803.69,-255.82 807.87,-249.06 800.39,-251.73 803.69,-255.82"/>
<text text-anchor="middle" x="754.5" y="-509" font-family="Helvetica,sans-Serif" font-size="10.00">RGB, depth, poses/intrinsics, SSC grids</text>
</g>
<!-- cgformer -->
<g id="node9" class="node">
<title>cgformer</title>
<path fill="#eaffea" stroke="#444444" d="M1602.5,-249C1602.5,-249 1259.5,-249 1259.5,-249 1253.5,-249 1247.5,-243 1247.5,-237 1247.5,-237 1247.5,-201 1247.5,-201 1247.5,-195 1253.5,-189 1259.5,-189 1259.5,-189 1602.5,-189 1602.5,-189 1608.5,-189 1614.5,-195 1614.5,-201 1614.5,-201 1614.5,-237 1614.5,-237 1614.5,-243 1608.5,-249 1602.5,-249"/>
<text text-anchor="middle" x="1431" y="-235.4" font-family="Helvetica,sans-Serif" font-size="12.00">CGFormer / Aero&#45;JEPA SSC ablation project</text>
<text text-anchor="middle" x="1431" y="-222.4" font-family="Helvetica,sans-Serif" font-size="12.00">Common preparation/eval: scripts_ssc/cgformer/common/*</text>
<text text-anchor="middle" x="1431" y="-209.4" font-family="Helvetica,sans-Serif" font-size="12.00">Aero&#45;JEPA configs M1&#45;M6 + final variants</text>
<text text-anchor="middle" x="1431" y="-196.4" font-family="Helvetica,sans-Serif" font-size="12.00">models/losses/tools/tests under aero_jepa_ssc_project</text>
</g>
<!-- loaders&#45;&gt;cgformer -->
<g id="edge13" class="edge">
<title>loaders&#45;&gt;cgformer</title>
<path fill="none" stroke="#555555" d="M1026.34,-745.93C1040.24,-740.37 1053.75,-733.79 1066,-726 1114.67,-695.04 1335.04,-365.29 1407.69,-255.4"/>
<polygon fill="#555555" stroke="#555555" points="1409.91,-256.8 1411.85,-249.1 1405.53,-253.91 1409.91,-256.8"/>
<text text-anchor="middle" x="1307.5" y="-509" font-family="Helvetica,sans-Serif" font-size="10.00">prepared OccuFly SSC inputs</text>
</g>
<!-- ext -->
<g id="node3" class="node">
<title>ext</title>
<path fill="#f7e7ff" stroke="#444444" d="M1449.5,-806C1449.5,-806 1118.5,-806 1118.5,-806 1112.5,-806 1106.5,-800 1106.5,-794 1106.5,-794 1106.5,-758 1106.5,-758 1106.5,-752 1112.5,-746 1118.5,-746 1118.5,-746 1449.5,-746 1449.5,-746 1455.5,-746 1461.5,-752 1461.5,-758 1461.5,-758 1461.5,-794 1461.5,-794 1461.5,-800 1455.5,-806 1449.5,-806"/>
<text text-anchor="middle" x="1284" y="-792.4" font-family="Helvetica,sans-Serif" font-size="12.00">External dependencies</text>
<text text-anchor="middle" x="1284" y="-779.4" font-family="Helvetica,sans-Serif" font-size="12.00">V&#45;JEPA/V&#45;JEPA2.1 checkpoints + repo</text>
<text text-anchor="middle" x="1284" y="-766.4" font-family="Helvetica,sans-Serif" font-size="12.00">DINOv3 depth modules</text>
<text text-anchor="middle" x="1284" y="-753.4" font-family="Helvetica,sans-Serif" font-size="12.00">FoundationSSC and CGFormer external roots/checkpoints</text>
</g>
<!-- ext&#45;&gt;mde -->
<g id="edge2" class="edge">
<title>ext&#45;&gt;mde</title>
<path fill="none" stroke="#555555" d="M1263.36,-745.82C1259.91,-739.55 1256.85,-732.77 1255,-726 1253.71,-721.28 1254.4,-719.85 1255,-715 1266.78,-620.22 1367.19,-578.49 1305,-506 1283.49,-480.93 1219.68,-467.07 1151.56,-459.45"/>
<polygon fill="#555555" stroke="#555555" points="1151.84,-456.84 1144.1,-458.64 1151.28,-462.06 1151.84,-456.84"/>
</g>
<!-- ext&#45;&gt;vjepa_ft -->
<g id="edge3" class="edge">
<title>ext&#45;&gt;vjepa_ft</title>
<path fill="none" stroke="#555555" d="M1165.87,-745.93C1104.41,-730.81 1029.28,-712.33 966.75,-696.94"/>
<polygon fill="#555555" stroke="#555555" points="967.1,-694.32 959.19,-695.08 965.84,-699.42 967.1,-694.32"/>
</g>
<!-- ext&#45;&gt;video_depth -->
<g id="edge4" class="edge">
<title>ext&#45;&gt;video_depth</title>
<path fill="none" stroke="#555555" d="M1106.32,-748.71C1098.78,-747.76 1091.32,-746.85 1084,-746 980.75,-733.95 706.83,-750.61 619,-695 541.09,-645.67 494.4,-542.13 474.06,-486.95"/>
<polygon fill="#555555" stroke="#555555" points="476.5,-485.97 471.48,-479.81 471.56,-487.76 476.5,-485.97"/>
</g>
<!-- ext&#45;&gt;segmentation -->
<g id="edge5" class="edge">
<title>ext&#45;&gt;segmentation</title>
<path fill="none" stroke="#555555" d="M1389.82,-745.96C1411.77,-739.63 1434.7,-732.79 1456,-726 1483.38,-717.28 1512.98,-707.1 1539.69,-697.62"/>
<polygon fill="#555555" stroke="#555555" points="1540.59,-700.09 1546.78,-695.1 1538.83,-695.14 1540.59,-700.09"/>
</g>
<!-- ext&#45;&gt;ssc -->
<g id="edge6" class="edge">
<title>ext&#45;&gt;ssc</title>
<path fill="none" stroke="#555555" d="M1341.45,-745.93C1348.08,-740.22 1353.92,-733.6 1358,-726 1406.18,-636.32 1396.88,-342.08 1326,-269 1320.38,-263.21 1274.52,-256.44 1213.24,-249.82"/>
<polygon fill="#555555" stroke="#555555" points="1213.43,-247.2 1205.69,-249.02 1212.87,-252.42 1213.43,-247.2"/>
</g>
<!-- ext&#45;&gt;cgformer -->
<g id="edge7" class="edge">
<title>ext&#45;&gt;cgformer</title>
<path fill="none" stroke="#555555" d="M1376.63,-745.89C1386.58,-740.31 1395.99,-733.74 1404,-726 1425.04,-705.69 1431,-695.24 1431,-666 1431,-666 1431,-666 1431,-347.5 1431,-316.91 1431,-282.19 1431,-256.71"/>
<polygon fill="#555555" stroke="#555555" points="1433.63,-256.62 1431,-249.12 1428.38,-256.62 1433.63,-256.62"/>
</g>
<!-- depth_outputs -->
<g id="node10" class="node">
<title>depth_outputs</title>
<path fill="#eeeeee" stroke="#444444" d="M1066,-372C1066,-372 762,-372 762,-372 756,-372 750,-366 750,-360 750,-360 750,-337 750,-337 750,-331 756,-325 762,-325 762,-325 1066,-325 1066,-325 1072,-325 1078,-331 1078,-337 1078,-337 1078,-360 1078,-360 1078,-366 1072,-372 1066,-372"/>
<text text-anchor="middle" x="914" y="-358.4" font-family="Helvetica,sans-Serif" font-size="12.00">Depth outputs and staged artifacts</text>
<text text-anchor="middle" x="914" y="-345.4" font-family="Helvetica,sans-Serif" font-size="12.00">checkpoints, metrics JSON/CSV, exported priors</text>
<text text-anchor="middle" x="914" y="-332.4" font-family="Helvetica,sans-Serif" font-size="12.00">outputs/results/*; export_depth_prediction_targets.py</text>
</g>
<!-- mde&#45;&gt;depth_outputs -->
<g id="edge14" class="edge">
<title>mde&#45;&gt;depth_outputs</title>
<path fill="none" stroke="#555555" d="M933.17,-412.76C929.87,-401.88 926.29,-390.05 923.12,-379.59"/>
<polygon fill="#555555" stroke="#555555" points="925.58,-378.66 920.89,-372.24 920.55,-380.18 925.58,-378.66"/>
</g>
<!-- ft_outputs -->
<g id="node11" class="node">
<title>ft_outputs</title>
<path fill="#eeeeee" stroke="#444444" d="M969,-584C969,-584 713,-584 713,-584 707,-584 701,-578 701,-572 701,-572 701,-549 701,-549 701,-543 707,-537 713,-537 713,-537 969,-537 969,-537 975,-537 981,-543 981,-549 981,-549 981,-572 981,-572 981,-578 975,-584 969,-584"/>
<text text-anchor="middle" x="841" y="-570.4" font-family="Helvetica,sans-Serif" font-size="12.00">Fine&#45;tuned V&#45;JEPA run directories</text>
<text text-anchor="middle" x="841" y="-557.4" font-family="Helvetica,sans-Serif" font-size="12.00">manifest/config YAML + latest checkpoints</text>
<text text-anchor="middle" x="841" y="-544.4" font-family="Helvetica,sans-Serif" font-size="12.00">outputs/results/vjepa21_*_finetune_occufly_*</text>
</g>
<!-- vjepa_ft&#45;&gt;ft_outputs -->
<g id="edge15" class="edge">
<title>vjepa_ft&#45;&gt;ft_outputs</title>
<path fill="none" stroke="#555555" d="M841,-634.9C841,-621.44 841,-605.46 841,-591.85"/>
<polygon fill="#555555" stroke="#555555" points="843.63,-591.65 841,-584.15 838.38,-591.65 843.63,-591.65"/>
</g>
<!-- video_outputs -->
<g id="node12" class="node">
<title>video_outputs</title>
<path fill="#eeeeee" stroke="#444444" d="M398,-305C398,-305 12,-305 12,-305 6,-305 0,-299 0,-293 0,-293 0,-281 0,-281 0,-275 6,-269 12,-269 12,-269 398,-269 398,-269 404,-269 410,-275 410,-281 410,-281 410,-293 410,-293 410,-299 404,-305 398,-305"/>
<text text-anchor="middle" x="205" y="-290.4" font-family="Helvetica,sans-Serif" font-size="12.00">Video&#45;depth outputs</text>
<text text-anchor="middle" x="205" y="-277.4" font-family="Helvetica,sans-Serif" font-size="12.00">ST&#45;LP/DTA checkpoints, grouped metrics, panels/PCA visualizations</text>
</g>
<!-- video_depth&#45;&gt;video_outputs -->
<g id="edge18" class="edge">
<title>video_depth&#45;&gt;video_outputs</title>
<path fill="none" stroke="#555555" d="M415.46,-419.43C364.45,-387.58 283.86,-337.25 238.64,-309.01"/>
<polygon fill="#555555" stroke="#555555" points="239.99,-306.76 232.24,-305.01 237.21,-311.21 239.99,-306.76"/>
</g>
<!-- viz_tests -->
<g id="node15" class="node">
<title>viz_tests</title>
<path fill="#fff2cc" stroke="#444444" d="M1017.5,-60C1017.5,-60 678.5,-60 678.5,-60 672.5,-60 666.5,-54 666.5,-48 666.5,-48 666.5,-12 666.5,-12 666.5,-6 672.5,0 678.5,0 678.5,0 1017.5,0 1017.5,0 1023.5,0 1029.5,-6 1029.5,-12 1029.5,-12 1029.5,-48 1029.5,-48 1029.5,-54 1023.5,-60 1017.5,-60"/>
<text text-anchor="middle" x="848" y="-46.4" font-family="Helvetica,sans-Serif" font-size="12.00">Diagnostics / visualization / tests / paper tables</text>
<text text-anchor="middle" x="848" y="-33.4" font-family="Helvetica,sans-Serif" font-size="12.00">scripts/diagnostics/*, scripts/visualization/*</text>
<text text-anchor="middle" x="848" y="-20.4" font-family="Helvetica,sans-Serif" font-size="12.00">scripts_ssc/vizualization/*, tests/*.py</text>
<text text-anchor="middle" x="848" y="-7.4" font-family="Helvetica,sans-Serif" font-size="12.00">paper_mde_grouped_tables.py, forpaper_report snapshots</text>
</g>
<!-- segmentation&#45;&gt;viz_tests -->
<g id="edge27" class="edge">
<title>segmentation&#45;&gt;viz_tests</title>
<path fill="none" stroke="#555555" stroke-dasharray="5,2" d="M1643.22,-634.56C1653.28,-614.63 1664,-587.31 1664,-561.5 1664,-561.5 1664,-561.5 1664,-123.5 1664,-60.78 1278.47,-40.58 1037.4,-34.08"/>
<polygon fill="#555555" stroke="#555555" points="1037.17,-31.45 1029.6,-33.87 1037.03,-36.7 1037.17,-31.45"/>
<text text-anchor="middle" x="1735" y="-346" font-family="Helvetica,sans-Serif" font-size="10.00">segmentation sweep outputs</text>
</g>
<!-- ssc_outputs -->
<g id="node13" class="node">
<title>ssc_outputs</title>
<path fill="#eeeeee" stroke="#444444" d="M1106.5,-142.5C1106.5,-142.5 589.5,-142.5 589.5,-142.5 583.5,-142.5 577.5,-136.5 577.5,-130.5 577.5,-130.5 577.5,-118.5 577.5,-118.5 577.5,-112.5 583.5,-106.5 589.5,-106.5 589.5,-106.5 1106.5,-106.5 1106.5,-106.5 1112.5,-106.5 1118.5,-112.5 1118.5,-118.5 1118.5,-118.5 1118.5,-130.5 1118.5,-130.5 1118.5,-136.5 1112.5,-142.5 1106.5,-142.5"/>
<text text-anchor="middle" x="848" y="-127.9" font-family="Helvetica,sans-Serif" font-size="12.00">SSC outputs</text>
<text text-anchor="middle" x="848" y="-114.9" font-family="Helvetica,sans-Serif" font-size="12.00">ssc_best.pt, ssc_latest.pt, grouped metrics, validation re&#45;eval, visualization, sigma sweep</text>
</g>
<!-- ssc&#45;&gt;ssc_outputs -->
<g id="edge21" class="edge">
<title>ssc&#45;&gt;ssc_outputs</title>
<path fill="none" stroke="#555555" d="M848,-188.99C848,-176.59 848,-162.26 848,-150.36"/>
<polygon fill="#555555" stroke="#555555" points="850.63,-150.06 848,-142.56 845.38,-150.06 850.63,-150.06"/>
</g>
<!-- cg_outputs -->
<g id="node14" class="node">
<title>cg_outputs</title>
<path fill="#eeeeee" stroke="#444444" d="M1587.5,-148C1587.5,-148 1178.5,-148 1178.5,-148 1172.5,-148 1166.5,-142 1166.5,-136 1166.5,-136 1166.5,-113 1166.5,-113 1166.5,-107 1172.5,-101 1178.5,-101 1178.5,-101 1587.5,-101 1587.5,-101 1593.5,-101 1599.5,-107 1599.5,-113 1599.5,-113 1599.5,-136 1599.5,-136 1599.5,-142 1593.5,-148 1587.5,-148"/>
<text text-anchor="middle" x="1383" y="-134.4" font-family="Helvetica,sans-Serif" font-size="12.00">CGFormer/Aero&#45;JEPA outputs</text>
<text text-anchor="middle" x="1383" y="-121.4" font-family="Helvetica,sans-Serif" font-size="12.00">feature caches, ablation runs, Table 3 artifacts</text>
<text text-anchor="middle" x="1383" y="-108.4" font-family="Helvetica,sans-Serif" font-size="12.00">cache_vjepa_features.py, run_table3_experiments.sh, make_table3.py</text>
</g>
<!-- cgformer&#45;&gt;cg_outputs -->
<g id="edge22" class="edge">
<title>cgformer&#45;&gt;cg_outputs</title>
<path fill="none" stroke="#555555" d="M1415.94,-188.99C1410.35,-178.21 1404,-165.97 1398.38,-155.14"/>
<polygon fill="#555555" stroke="#555555" points="1400.59,-153.7 1394.81,-148.25 1395.93,-156.12 1400.59,-153.7"/>
</g>
<!-- depth_outputs&#45;&gt;ssc -->
<g id="edge19" class="edge">
<title>depth_outputs&#45;&gt;ssc</title>
<path fill="none" stroke="#555555" stroke-dasharray="5,2" d="M902.35,-325C892.49,-305.95 878.18,-278.29 866.71,-256.15"/>
<polygon fill="#555555" stroke="#555555" points="869.03,-254.92 863.25,-249.47 864.37,-257.33 869.03,-254.92"/>
<text text-anchor="middle" x="981" y="-284.5" font-family="Helvetica,sans-Serif" font-size="10.00">MDE depth&#45;head initialization / priors</text>
</g>
<!-- depth_outputs&#45;&gt;cgformer -->
<g id="edge20" class="edge">
<title>depth_outputs&#45;&gt;cgformer</title>
<path fill="none" stroke="#555555" stroke-dasharray="5,2" d="M1005.24,-325C1088.64,-304.43 1212.75,-273.82 1305.48,-250.95"/>
<polygon fill="#555555" stroke="#555555" points="1306.29,-253.46 1312.95,-249.11 1305.04,-248.36 1306.29,-253.46"/>
<text text-anchor="middle" x="1275" y="-284.5" font-family="Helvetica,sans-Serif" font-size="10.00">depth&#45;prior export path</text>
</g>
<!-- depth_outputs&#45;&gt;viz_tests -->
<g id="edge23" class="edge">
<title>depth_outputs&#45;&gt;viz_tests</title>
<path fill="none" stroke="#555555" d="M749.98,-332.89C636.91,-319.03 500.8,-293.5 465,-249 389.93,-155.68 549.88,-94.97 685.49,-61.89"/>
<polygon fill="#555555" stroke="#555555" points="686.48,-64.35 693.16,-60.04 685.25,-59.25 686.48,-64.35"/>
</g>
<!-- ft_outputs&#45;&gt;mde -->
<g id="edge16" class="edge">
<title>ft_outputs&#45;&gt;mde</title>
<path fill="none" stroke="#555555" stroke-dasharray="5,2" d="M866.81,-536.63C873.53,-530.41 880.66,-523.58 887,-517 894.63,-509.08 902.5,-500.33 909.86,-491.85"/>
<polygon fill="#555555" stroke="#555555" points="911.96,-493.43 914.86,-486.03 907.98,-490 911.96,-493.43"/>
<text text-anchor="middle" x="964" y="-509" font-family="Helvetica,sans-Serif" font-size="10.00">fine&#45;tuned checkpoint reuse</text>
</g>
<!-- ft_outputs&#45;&gt;video_depth -->
<g id="edge17" class="edge">
<title>ft_outputs&#45;&gt;video_depth</title>
<path fill="none" stroke="#555555" stroke-dasharray="5,2" d="M700.69,-549.21C656.59,-542.98 608.37,-533 566,-517 544.75,-508.97 523.27,-496.2 505.39,-483.98"/>
<polygon fill="#555555" stroke="#555555" points="506.63,-481.64 498.98,-479.51 503.63,-485.95 506.63,-481.64"/>
<text text-anchor="middle" x="608" y="-509" font-family="Helvetica,sans-Serif" font-size="10.00">checkpoint reuse</text>
</g>
<!-- video_outputs&#45;&gt;viz_tests -->
<g id="edge24" class="edge">
<title>video_outputs&#45;&gt;viz_tests</title>
<path fill="none" stroke="#555555" d="M215.63,-268.89C242.13,-227.96 315.57,-124.5 407,-80 451.01,-58.58 559.97,-46.36 658.57,-39.47"/>
<polygon fill="#555555" stroke="#555555" points="658.95,-42.08 666.26,-38.94 658.59,-36.84 658.95,-42.08"/>
</g>
<!-- ssc_outputs&#45;&gt;viz_tests -->
<g id="edge25" class="edge">
<title>ssc_outputs&#45;&gt;viz_tests</title>
<path fill="none" stroke="#555555" d="M848,-106.1C848,-95.34 848,-81.11 848,-67.93"/>
<polygon fill="#555555" stroke="#555555" points="850.63,-67.83 848,-60.33 845.38,-67.83 850.63,-67.83"/>
</g>
<!-- cg_outputs&#45;&gt;viz_tests -->
<g id="edge26" class="edge">
<title>cg_outputs&#45;&gt;viz_tests</title>
<path fill="none" stroke="#555555" d="M1252.81,-100.99C1183.88,-89.07 1098.27,-74.27 1023.55,-61.35"/>
<polygon fill="#555555" stroke="#555555" points="1023.73,-58.72 1015.89,-60.03 1022.84,-63.89 1023.73,-58.72"/>
</g>
</g>
</svg>
